Coordinates
version=1
nRows=24
nColumns=22
inDegrees=yes

Units are S.I. units (second, meters, Newtons, ...)
If the header above contains a line with 'inDegrees', this indicates whether rotational values are in degrees (yes) or radians (no).

endheader
time	pelvis_tilt	pelvis_list	pelvis_rotation	pelvis_tx	pelvis_ty	pelvis_tz	hip_flexion_r	hip_adduction_r	hip_rotation_r	knee_angle_r	ankle_angle_r	subtalar_angle_r	hip_flexion_l	hip_adduction_l	hip_rotation_l	knee_angle_l	ankle_angle_l	subtalar_angle_l	lumbar_extension	lumbar_bending	lumbar_rotation
      3.24000000	      2.62413551	      5.06131453	   -313.16916923	     -0.80925947	      0.94211694	     -0.48618286	     21.61395474	      1.86482321	    -11.32927415	    -51.43328442	      3.85259990	     -1.14070455	     -5.64592813	     -3.37016648	    -16.01194405	    -18.32217134	     21.97549017	     -2.13663506	    -15.39409452	      0.84047617	    -18.42688073
      3.25000000	      2.73235728	      5.06640373	   -313.51279098	     -0.80315946	      0.94112595	     -0.49299612	     22.12939439	      1.69449128	    -12.55652289	    -49.05402334	      4.04727835	     -1.05190358	     -6.63225795	     -3.31420909	    -16.48446625	    -17.91988661	     22.36900039	     -2.21701119	    -15.54098991	      0.91403234	    -18.76831899
      3.26000000	      2.77192066	      5.04488790	   -313.82562251	     -0.79696260	      0.93973650	     -0.49979660	     22.63653789	      1.49740367	    -13.80433958	    -46.53651473	      4.25657831	     -0.99085314	     -7.49855623	     -3.23240724	    -16.91300895	    -17.61825267	     22.86112722	     -2.31785861	    -15.60563223	      0.95071268	    -19.10695031
      3.27000000	      2.87861444	      5.07233827	   -314.17290582	     -0.79056096	      0.93830137	     -0.50656330	     22.93604860	      1.37503789	    -14.98423324	    -43.80397994	      4.29375595	     -0.96810949	     -8.48973305	     -3.14372910	    -17.32255190	    -17.26727463	     23.29934056	     -2.60726109	    -15.76665606	      1.00282216	    -19.38826258
      3.28000000	      2.89274328	      5.00730214	   -314.46039182	     -0.78405865	      0.93638812	     -0.51330532	     23.29488060	      1.26930488	    -16.19662240	    -40.94682614	      4.40101367	     -0.89823141	     -9.25773638	     -3.08397437	    -17.66433362	    -17.07644577	     23.87694023	     -2.75420722	    -15.76601972	      1.05343368	    -19.68229052
      3.29000000	      2.97117805	      5.02233050	   -314.79655697	     -0.77732830	      0.93447200	     -0.51998929	     23.43991927	      1.22136745	    -17.32709985	    -37.93221894	      4.34546915	     -0.78952029	    -10.16090414	     -3.00393665	    -18.07319292	    -16.86525417	     24.41139978	     -3.05029582	    -15.88287946	      1.08617243	    -19.94704307
      3.30000000	      3.00908744	      4.97283296	   -315.09614697	     -0.77044523	      0.93224191	     -0.52664209	     23.57752958	      1.22719448	    -18.47656763	    -34.81566702	      4.32467972	     -0.64003763	    -10.92740800	     -2.97015832	    -18.43853105	    -16.77310267	     25.01711314	     -3.22483566	    -15.90359977	      1.13733660	    -20.19884078
      3.31000000	      3.03558589	      4.90007150	   -315.37429935	     -0.76338666	      0.92981173	     -0.53325815	     23.65987105	      1.28904251	    -19.61679585	    -31.63116904	      4.32496182	     -0.48824607	    -11.62304090	     -2.97549889	    -18.80281929	    -16.78356952	     25.64691093	     -3.33189304	    -15.88627311	      1.19852768	    -20.46609632
      3.32000000	      3.09733755	      4.84897137	   -315.67308922	     -0.75609776	      0.92732630	     -0.53982925	     23.62850859	      1.41778281	    -20.72853181	    -28.43429343	      4.31272247	     -0.29087729	    -12.36993691	     -2.99262839	    -19.13965198	    -16.80312305	     26.23681607	     -3.40704437	    -15.90863364	      1.26049178	    -20.65014137
      3.33000000	      3.14154612	      4.76387111	   -315.93835423	     -0.74863243	      0.92466960	     -0.54640898	     23.59205311	      1.59440812	    -21.82966297	    -25.31314888	      4.36164294	     -0.11963820	    -13.03280388	     -3.06005229	    -19.46585053	    -16.93010113	     26.83376733	     -3.40852321	    -15.87101102	      1.34573324	    -20.87195067
      3.34000000	      3.21216413	      4.68765299	   -316.20665061	     -0.74093306	      0.92198446	     -0.55296482	     23.49956206	      1.83514776	    -22.83783257	    -22.33356884	      4.44294394	      0.08366629	    -13.71989017	     -3.15252568	    -19.73105280	    -17.08773609	     27.35662463	     -3.30224143	    -15.84962598	      1.44105485	    -21.04139306
      3.35000000	      3.25014964	      4.57186382	   -316.43238867	     -0.73305262	      0.91915430	     -0.55951543	     23.47652687	      2.09452986	    -23.78365264	    -19.63461526	      4.61182670	      0.24182494	    -14.29303898	     -3.30114894	    -19.97536996	    -17.37876837	     27.87700382	     -3.16752251	    -15.75298684	      1.54818976	    -21.25056021
      3.36000000	      3.31273618	      4.45548073	   -316.65044715	     -0.72493654	      0.91635622	     -0.56607728	     23.44791338	      2.39174500	    -24.56484488	    -17.26634539	      4.81398321	      0.42477744	    -14.87904061	     -3.48594036	    -20.14887818	    -17.70629746	     28.30404186	     -2.93232103	    -15.66012068	      1.67857548	    -21.42946219
      3.37000000	      3.38909654	      4.32506122	   -316.85011102	     -0.71660190	      0.91360254	     -0.57266935	     23.44712159	      2.70285094	    -25.16995881	    -15.31520110	      5.05479185	      0.63050650	    -15.44786226	     -3.71490480	    -20.25134992	    -18.09043056	     28.63144454	     -2.59279759	    -15.55299430	      1.83873749	    -21.59607172
      3.38000000	      3.48340839	      4.19204300	   -317.04242034	     -0.70801930	      0.91096909	     -0.57935395	     23.45758590	      3.00833240	    -25.55295793	    -13.83176292	      5.29973421	      0.89877672	    -16.03173799	     -3.96891292	    -20.28320829	    -18.49668000	     28.77556221	     -2.01693910	    -15.42941344	      2.03008287	    -21.75059941
      3.39000000	      3.59340827	      4.02223543	   -317.20171819	     -0.69921092	      0.90844704	     -0.58615641	     23.50945185	      3.30055585	    -25.81016439	    -12.86510400	      5.55756255	      1.06466469	    -16.57937572	     -4.28577593	    -20.23327805	    -18.96804062	     28.84324043	     -1.51699697	    -15.26594651	      2.28375614	    -21.92274320
      3.40000000	      3.73835560	      3.82609018	   -317.32960523	     -0.69015818	      0.90610849	     -0.59311089	     23.57367255	      3.57516876	    -25.96222736	    -12.43005783	      5.81873647	      1.12500621	    -17.11609020	     -4.66737187	    -20.09552179	    -19.50329549	     28.81036665	     -1.17739823	    -15.08133105	      2.61094359	    -22.13055024
      3.41000000	      3.94255454	      3.62236019	   -317.47934194	     -0.68071721	      0.90406891	     -0.60021589	     23.57006668	      3.87135138	    -26.00354987	    -12.42625320	      5.93088628	      1.08963065	    -17.73575583	     -5.08587669	    -19.92117972	    -20.00129839	     28.48596624	     -0.40836358	    -14.89818598	      2.99491842	    -22.28173709
      3.42000000	      4.19335648	      3.38685666	   -317.60924576	     -0.67095207	      0.90228179	     -0.60747472	     23.55357554	      4.16903248	    -26.05310323	    -12.88179262	      5.96056674	      0.83369579	    -18.34515355	     -5.57762639	    -19.66850129	    -20.58011499	     28.01657186	      0.19129445	    -14.69127853	      3.45630722	    -22.45108113
      3.43000000	      4.50011098	      3.12221107	   -317.74000080	     -0.66078212	      0.90080036	     -0.61487663	     23.49308599	      4.49423285	    -26.16038592	    -13.69736990	      5.83757257	      0.31968319	    -18.97250244	     -6.13702564	    -19.36725923	    -21.20783558	     27.33145249	      0.80298733	    -14.46151480	      3.99080304	    -22.61217208
      3.44000000	      4.84794711	      2.83712978	   -317.87959896	     -0.65021083	      0.89964166	     -0.62235564	     23.38708793	      4.84724213	    -26.33748511	    -14.77455369	      5.53091490	     -0.52685633	    -19.58450062	     -6.75157219	    -19.02807138	    -21.92943268	     26.39202438	      1.45653742	    -14.21042487	      4.56843493	    -22.76150348
      3.45000000	      5.23428593	      2.52246525	   -318.03181792	     -0.63922776	      0.89883100	     -0.62988560	     23.23038461	      5.24642912	    -26.61532283	    -16.00401933	      5.04987073	     -1.68754307	    -20.16240256	     -7.42226923	    -18.63248644	    -22.75173270	     25.19701274	      2.12114088	    -13.92712480	      5.19021218	    -22.88049963
      3.46000000	      5.62667119	      2.18553646	   -318.21480294	     -0.62785396	      0.89836168	     -0.63735798	     23.03369783	      5.69718390	    -26.87838587	    -17.27391637	      4.47604084	     -3.16648364	    -20.65514288	     -8.12315464	    -18.18086752	    -23.71510907	     23.68637091	      2.81930380	    -13.60191975	      5.81115039	    -22.95189668
      3.47000000	      6.01597771	      1.83640550	   -318.42948223	     -0.61615786	      0.89824486	     -0.64471181	     22.79718002	      6.19691607	    -27.08896212	    -18.52202562	      3.88979874	     -4.83313800	    -21.02584706	     -8.84529624	    -17.65214081	    -24.86064116	     21.87316466	      3.53071606	    -13.24666393	      6.41506018	    -22.98488197
